<svg width="115" height="32" viewBox="0 0 115 32" fill="none" xmlns="http://www.w3.org/2000/svg">
<g clip-path="url(#clip0_43_831)">
<path d="M9.29462 16.5373H9.29165C9.29165 11.5463 9.29079 6.55511 9.28906 1.56381C9.28906 0.649546 8.69562 0.0282916 7.84255 0.000845144C6.98949 -0.0266013 6.31371 0.617278 6.26586 1.52042C6.25733 1.68287 6.26067 1.84569 6.26067 2.00852C6.26216 7.61477 6.26376 13.2209 6.26549 18.8269C6.26549 21.214 6.26549 23.6011 6.26549 25.9882C6.26549 26.1414 6.33596 26.3395 6.16683 26.4351C5.9977 26.5308 5.87011 26.3573 5.7377 26.2775C5.16578 25.9307 4.61462 25.5465 4.02564 25.2327C3.33725 24.8655 3.08689 24.3392 3.08912 23.5596C3.10878 17.5558 3.09617 11.5517 3.09172 5.548C3.09172 5.22272 3.10544 4.89374 3.06278 4.57291C2.91443 3.47208 1.69565 2.88458 0.756539 3.46021C0.169777 3.81665 0.00584035 4.38153 0.00621125 5.0395C0.0114038 11.3689 0.0199345 17.6983 -9.40218e-05 24.0295C-0.0052866 25.68 0.710547 26.8391 2.10105 27.6788C4.32903 29.024 6.52957 30.4149 8.74495 31.7809C8.88849 31.8692 9.02757 32.0865 9.21265 31.9663C9.37659 31.8595 9.29128 31.6325 9.29128 31.4593C9.29549 26.4843 9.2966 21.5104 9.29462 16.5373Z" fill="white"/>
<path d="M22.5037 16.3811C22.5037 12.5104 22.5025 8.63998 22.5 4.76978C22.4978 3.89298 21.8509 3.25429 21.0042 3.23908C20.1882 3.22462 19.5254 3.82918 19.4594 4.67409C19.4301 5.05166 19.4416 5.43295 19.4412 5.81275C19.4356 11.7631 19.4226 17.7134 19.4375 23.6637C19.4375 24.387 19.1805 24.858 18.5559 25.1974C17.9691 25.516 17.4157 25.8962 16.8423 26.2407C16.694 26.3305 16.5456 26.5374 16.3705 26.4462C16.1639 26.339 16.2641 26.0853 16.2641 25.8973C16.2641 17.921 16.2656 9.94492 16.2685 1.96913C16.274 1.76994 16.2687 1.57059 16.2526 1.37198C16.1669 0.582337 15.5405 0.0100413 14.7616 -0.000343878C13.9827 -0.010729 13.3284 0.540055 13.2257 1.32451C13.1886 1.59192 13.196 1.86602 13.196 2.13677C13.1945 6.94782 13.1945 11.7587 13.196 16.5695C13.196 21.5433 13.1972 26.517 13.1997 31.4908C13.1997 31.7645 13.0884 32.2211 13.6518 31.8713C16.0315 30.3922 18.4286 28.9412 20.7913 27.4339C21.9084 26.7214 22.5222 25.6836 22.5119 24.3028C22.4889 21.6623 22.5037 19.0216 22.5037 16.3811Z" fill="white"/>
</g>
<path d="M35.9096 7.42262H40.0223V7.47604C39.3547 8.46415 39.4081 10.1733 39.8621 12.3098L41.8383 21.7903L43.9747 12.47L43.8679 12.016C43.3605 9.85284 42.9332 8.51756 42.3457 7.47604V7.42262H46.3782V7.47604C45.7106 8.46415 45.8441 10.1466 46.3515 12.3098L48.6215 21.817L50.3307 13.2979C50.9449 10.2267 50.571 8.43744 49.9568 7.47604V7.42262H52.6007V7.47604C51.8529 8.65109 51.479 10.1733 51.025 12.4166L48.0607 27.1314H47.4198L44.2418 13.5916L41.1172 27.1314H40.4763L37.4051 12.016C36.9778 9.85284 36.5773 8.51756 35.9096 7.47604V7.42262ZM53.7307 26.9712H51.0067V26.9178C51.7811 25.6893 52.2084 24.2739 52.7158 22.1642L56.241 7.26239H56.9086L60.4872 22.3778C61.0213 24.6211 61.4486 25.8763 62.0628 26.9178V26.9712H57.8967V26.9178C58.3507 25.9831 58.4576 24.2472 57.9502 22.084L57.416 19.8408H53.8108L53.5437 21.0158C52.8227 24.0603 53.3301 25.9564 53.7307 26.9178V26.9712ZM53.9443 19.3601H57.3092L55.6268 12.1762L53.9443 19.3601ZM68.1058 26.9178V26.9712H64.2869V26.9178C64.821 25.3421 64.9813 24.4342 64.9813 22.2977V7.90333L64.1 7.95674C63.192 8.01015 62.0436 10.3068 61.1089 11.9359L60.9754 11.8825L61.4828 7.42262H70.9099L71.4173 11.8825L71.2571 11.9359C70.3491 10.3068 69.1741 8.01015 68.2928 7.95674L67.4115 7.90333V22.2977C67.4115 24.4342 67.5717 25.3421 68.1058 26.9178ZM82.1635 21.7102L81.9231 25.6893C81.6293 26.0365 80.2941 27.3718 78.0241 27.3718C74.125 27.3718 71.9085 23.0455 71.9085 17.3037C71.9085 11.562 74.2853 7.02204 78.4514 7.02204C80.0537 7.02204 81.0151 7.52945 81.8697 7.93003L82.0833 11.4552L81.9231 11.5353C80.2139 8.7045 79.3861 7.50274 77.8638 7.50274C75.4069 7.50274 74.5523 11.6421 74.5523 17.3037C74.5523 22.9653 75.5404 26.8911 77.7837 26.8911C79.7065 26.8911 80.6679 24.7012 82.0032 21.6301L82.1635 21.7102ZM84.1461 26.9712V26.9178C84.6803 25.3421 84.8405 24.4342 84.8405 22.2977V12.0961C84.8405 9.93296 84.6803 9.05167 84.1461 7.47604V7.42262H87.9651V7.47604C87.4309 9.05167 87.2707 9.93296 87.2707 12.0961V16.6628H92.7988V12.0961C92.7988 9.93296 92.6386 9.05167 92.1044 7.47604V7.42262H95.9234V7.47604C95.3892 9.05167 95.229 9.93296 95.229 12.0961V22.2977C95.229 24.4342 95.3892 25.3421 95.9234 26.9178V26.9712H92.1044V26.9178C92.6386 25.3421 92.7988 24.4342 92.7988 22.2977V17.1435H87.2707V22.2977C87.2707 24.4342 87.4309 25.3421 87.9651 26.9178V26.9712H84.1461ZM101.813 26.9178V26.9712H97.9945V26.9178C98.5286 25.3421 98.6889 24.4342 98.6889 22.2977V12.0961C98.6889 9.93296 98.5286 9.05167 97.9945 7.47604V7.42262H106.674L107.208 11.2682L107.048 11.3484C106.166 10.2267 104.885 7.98344 104.057 7.95674L101.119 7.82321V16.6361H102.641C103.496 16.6361 104.377 15.2207 104.911 14.3928H105.072V19.3334H104.911C104.404 18.5589 103.523 17.1168 102.641 17.1168H101.119V22.2977C101.119 24.4342 101.279 25.3421 101.813 26.9178ZM108.844 26.9712V26.9178C109.378 25.3421 109.538 24.4342 109.538 22.2977V12.0961C109.538 9.93296 109.378 9.05167 108.844 7.47604V7.42262H112.663V7.47604C112.128 9.05167 111.968 9.93296 111.968 12.0961V22.2977C111.968 24.4342 112.128 25.3421 112.663 26.9178V26.9712H108.844Z" fill="white"/>
<defs>
<clipPath id="clip0_43_831">
<rect width="22.5091" height="32" fill="white"/>
</clipPath>
</defs>
</svg>
